<svg xmlns="http://www.w3.org/2000/svg" xmlns:xlink="http://www.w3.org/1999/xlink" width="500" zoomAndPan="magnify" viewBox="0 0 375 374.999991" height="500" preserveAspectRatio="xMidYMid meet" version="1.0"><defs><g/><clipPath id="a4f65c2702"><path d="M 144 114.15625 L 231 114.15625 L 231 161 L 144 161 Z M 144 114.15625 " clip-rule="nonzero"/></clipPath><clipPath id="ffcc7c986f"><path d="M 126.191406 155.375 L 249.175781 155.375 L 249.175781 174.90625 L 126.191406 174.90625 Z M 126.191406 155.375 " clip-rule="nonzero"/></clipPath></defs><rect x="-37.5" width="450" fill="#ffffff" y="-37.499999" height="449.999989" fill-opacity="1"/><rect x="-37.5" width="450" fill="#ffffff" y="-37.499999" height="449.999989" fill-opacity="1"/><rect x="-37.5" width="450" fill="#ffffff" y="-37.499999" height="449.999989" fill-opacity="1"/><g clip-path="url(#a4f65c2702)"><path fill="#231f20" d="M 190.746094 115.027344 C 191.449219 115.078125 192.148438 115.148438 192.84375 115.234375 L 193.015625 114.378906 L 199.023438 115.570312 L 198.851562 116.421875 C 199.53125 116.609375 200.207031 116.8125 200.871094 117.03125 L 201.203125 116.230469 L 206.863281 118.570312 L 206.53125 119.375 C 207.160156 119.691406 207.78125 120.019531 208.390625 120.367188 L 208.875 119.644531 L 213.96875 123.039062 L 213.480469 123.765625 C 214.035156 124.199219 214.578125 124.644531 215.109375 125.101562 L 215.730469 124.484375 L 220.0625 128.804688 L 219.441406 129.421875 C 219.898438 129.953125 220.34375 130.496094 220.777344 131.050781 L 221.507812 130.5625 L 224.910156 135.644531 L 224.1875 136.128906 C 224.53125 136.738281 224.863281 137.359375 225.183594 137.984375 L 225.984375 137.652344 L 228.328125 143.300781 L 227.527344 143.632812 C 227.75 144.296875 227.953125 144.96875 228.140625 145.648438 L 228.992188 145.476562 L 230.1875 151.472656 L 229.328125 151.644531 C 229.414062 152.335938 229.484375 153.035156 229.535156 153.738281 L 230.410156 153.738281 L 230.410156 159.851562 L 229.535156 159.851562 C 229.527344 159.957031 229.519531 160.066406 229.507812 160.175781 C 217.832031 155.519531 203.359375 152.761719 187.683594 152.761719 C 172.007812 152.761719 157.53125 155.519531 145.855469 160.175781 C 145.847656 160.066406 145.839844 159.957031 145.832031 159.851562 L 144.957031 159.851562 L 144.957031 153.738281 L 145.832031 153.738281 C 145.882812 153.035156 145.949219 152.335938 146.035156 151.644531 L 145.179688 151.472656 L 146.375 145.476562 L 147.226562 145.648438 C 147.414062 144.96875 147.617188 144.296875 147.835938 143.632812 L 147.035156 143.300781 L 149.378906 137.652344 L 150.183594 137.984375 C 150.5 137.359375 150.832031 136.738281 151.179688 136.128906 L 150.453125 135.644531 L 153.859375 130.5625 L 154.585938 131.050781 C 155.019531 130.496094 155.464844 129.953125 155.925781 129.425781 L 155.304688 128.804688 L 159.636719 124.484375 L 160.257812 125.101562 C 160.789062 124.644531 161.332031 124.199219 161.886719 123.765625 L 161.398438 123.039062 L 166.492188 119.644531 L 166.976562 120.367188 C 167.585938 120.019531 168.207031 119.691406 168.835938 119.375 L 168.503906 118.570312 L 174.160156 116.230469 L 174.492188 117.03125 C 175.160156 116.8125 175.832031 116.609375 176.511719 116.421875 L 176.34375 115.570312 L 182.351562 114.378906 L 182.519531 115.234375 C 183.214844 115.148438 183.914062 115.082031 184.621094 115.027344 L 184.621094 114.15625 L 190.746094 114.15625 L 190.746094 115.027344 " fill-opacity="1" fill-rule="evenodd"/></g><path fill="#ffffff" d="M 187.683594 129.804688 C 195.148438 129.804688 201.910156 132.828125 206.804688 137.710938 C 211.445312 142.34375 214.410156 148.65625 214.703125 155.652344 C 213.925781 155.480469 213.140625 155.3125 212.347656 155.152344 C 211.941406 148.996094 209.273438 143.457031 205.160156 139.351562 C 200.6875 134.886719 194.507812 132.128906 187.683594 132.128906 C 180.859375 132.128906 174.679688 134.886719 170.207031 139.351562 C 166.09375 143.457031 163.421875 148.996094 163.019531 155.152344 C 162.226562 155.3125 161.441406 155.480469 160.664062 155.652344 C 160.957031 148.65625 163.917969 142.34375 168.5625 137.710938 C 173.457031 132.828125 180.214844 129.804688 187.683594 129.804688 " fill-opacity="1" fill-rule="nonzero"/><path fill="#ffffff" d="M 162.277344 147.988281 C 163.449219 144.382812 167.328125 142.410156 170.941406 143.582031 C 174.550781 144.753906 176.53125 148.625 175.355469 152.230469 C 175.222656 152.636719 175.054688 153.027344 174.855469 153.390625 C 171.109375 153.761719 167.46875 154.292969 163.960938 154.96875 C 162.1875 153.199219 161.449219 150.527344 162.277344 147.988281 Z M 187.683594 130.160156 C 191.480469 130.160156 194.558594 133.230469 194.558594 137.023438 C 194.558594 140.8125 191.480469 143.882812 187.683594 143.882812 C 183.886719 143.882812 180.804688 140.8125 180.804688 137.023438 C 180.804688 133.230469 183.886719 130.160156 187.683594 130.160156 Z M 212.523438 148.761719 C 213.242188 150.960938 212.785156 153.261719 211.496094 154.984375 C 207.660156 154.242188 203.664062 153.675781 199.546875 153.300781 C 199.511719 153.203125 199.476562 153.105469 199.445312 153.003906 C 198.269531 149.398438 200.25 145.527344 203.859375 144.355469 C 207.472656 143.1875 211.351562 145.160156 212.523438 148.761719 " fill-opacity="1" fill-rule="evenodd"/><g clip-path="url(#ffcc7c986f)"><path fill="#004aad" d="M 187.683594 155.398438 C 214.191406 155.398438 237.261719 163.28125 249.175781 174.90625 C 234.140625 167.128906 212.164062 162.222656 187.683594 162.222656 C 163.203125 162.222656 141.226562 167.128906 126.191406 174.90625 C 138.101562 163.28125 161.175781 155.398438 187.683594 155.398438 " fill-opacity="1" fill-rule="evenodd"/></g><g fill="#000000" fill-opacity="1"><g transform="translate(79.715368, 208.425015)"><g><path d="M 4.6875 -29.203125 L 13.671875 -29.203125 C 15.097656 -29.203125 16.128906 -28.878906 16.765625 -28.234375 C 17.398438 -27.585938 17.71875 -26.679688 17.71875 -25.515625 C 17.71875 -24.347656 17.507812 -22.859375 17.09375 -21.046875 C 16.707031 -19.390625 16.191406 -18.097656 15.546875 -17.171875 C 14.898438 -16.242188 14 -15.597656 12.84375 -15.234375 C 13.6875 -15.046875 14.226562 -14.601562 14.46875 -13.90625 C 14.707031 -13.207031 14.6875 -12.253906 14.40625 -11.046875 L 11.796875 0 L 6.078125 0 L 8.703125 -11.421875 C 8.898438 -12.234375 8.863281 -12.753906 8.59375 -12.984375 C 8.320312 -13.210938 7.769531 -13.328125 6.9375 -13.328125 L 3.875 0 L -2.046875 0 Z M 9.546875 -18.390625 C 10.367188 -18.390625 10.984375 -19.273438 11.390625 -21.046875 C 11.566406 -21.816406 11.660156 -22.394531 11.671875 -22.78125 C 11.679688 -23.164062 11.613281 -23.429688 11.46875 -23.578125 C 11.320312 -23.722656 11.078125 -23.796875 10.734375 -23.796875 L 9.375 -23.796875 L 8.15625 -18.390625 Z M 9.546875 -18.390625 "/></g></g></g><g fill="#000000" fill-opacity="1"><g transform="translate(97.393493, 208.425015)"><g><path d="M -2.046875 0 L 4.6875 -29.203125 L 16.390625 -29.203125 L 15.09375 -23.5625 L 9.34375 -23.5625 L 8.015625 -17.890625 L 13.53125 -17.890625 L 12.265625 -12.375 L 6.765625 -12.375 L 5.203125 -5.671875 L 11.3125 -5.671875 L 10.03125 0 Z M -2.046875 0 "/></g></g></g><g fill="#000000" fill-opacity="1"><g transform="translate(112.861879, 208.425015)"><g><path d="M -2.046875 0 L 4.6875 -29.203125 L 10.703125 -29.203125 L 10.15625 -15.234375 L 13.390625 -29.203125 L 19.03125 -29.203125 L 12.3125 0 L 6.59375 0 L 7.03125 -14.625 L 3.671875 0 Z M -2.046875 0 "/></g></g></g><g fill="#000000" fill-opacity="1"><g transform="translate(131.253924, 208.425015)"><g><path d="M 0.4375 0 L 5.875 -23.59375 L 2.40625 -23.59375 L 3.703125 -29.203125 L 16.484375 -29.203125 L 15.203125 -23.59375 L 11.734375 -23.59375 L 6.296875 0 Z M 0.4375 0 "/></g></g></g><g fill="#000000" fill-opacity="1"><g transform="translate(146.178369, 208.425015)"><g><path d="M -2.046875 0 L 4.6875 -29.203125 L 13.59375 -29.203125 L 11.9375 -11.390625 L 18.5 -29.203125 L 27.46875 -29.203125 L 20.734375 0 L 15.40625 0 L 20.265625 -21.046875 L 12.03125 0 L 6.796875 0 L 8.09375 -21.046875 L 3.234375 0 Z M -2.046875 0 "/></g></g></g><g fill="#000000" fill-opacity="1"><g transform="translate(173.001441, 208.425015)"><g><path d="M 1.46875 0 L 3.671875 -9.625 L 3.53125 -29.203125 L 9.3125 -29.203125 L 8.671875 -19.3125 L 12.578125 -29.203125 L 18.359375 -29.203125 L 9.1875 -9.625 L 6.96875 0 Z M 1.46875 0 "/></g></g></g><g fill="#000000" fill-opacity="1"><g transform="translate(189.625689, 208.425015)"><g><path d="M 0.203125 0 L 3.8125 -29.203125 L 9.515625 -29.203125 L 6.90625 -10.78125 L 12.78125 -29.203125 L 18.21875 -29.203125 L 15.53125 -10.78125 L 21.359375 -29.203125 L 27.125 -29.203125 L 17.203125 0 L 10.203125 0 L 11.96875 -14.078125 L 7.34375 0 Z M 0.203125 0 "/></g></g></g><g fill="#000000" fill-opacity="1"><g transform="translate(215.292897, 208.425015)"><g><path d="M -2.046875 0 L 4.6875 -29.203125 L 10.5 -29.203125 L 8.09375 -18.765625 L 10.84375 -18.765625 L 13.25 -29.203125 L 19.078125 -29.203125 L 12.34375 0 L 6.53125 0 L 9.578125 -13.265625 L 6.828125 -13.265625 L 3.765625 0 Z M -2.046875 0 "/></g></g></g><g fill="#000000" fill-opacity="1"><g transform="translate(233.718936, 208.425015)"><g><path d="M -2.046875 0 L 4.6875 -29.203125 L 16.390625 -29.203125 L 15.09375 -23.5625 L 9.34375 -23.5625 L 8.015625 -17.890625 L 13.53125 -17.890625 L 12.265625 -12.375 L 6.765625 -12.375 L 5.203125 -5.671875 L 11.3125 -5.671875 L 10.03125 0 Z M -2.046875 0 "/></g></g></g><g fill="#000000" fill-opacity="1"><g transform="translate(249.187319, 208.425015)"><g><path d="M -2.046875 0 L 4.6875 -29.203125 L 16.390625 -29.203125 L 15.09375 -23.5625 L 9.34375 -23.5625 L 8.015625 -17.890625 L 13.53125 -17.890625 L 12.265625 -12.375 L 6.765625 -12.375 L 5.203125 -5.671875 L 11.3125 -5.671875 L 10.03125 0 Z M -2.046875 0 "/></g></g></g><g fill="#000000" fill-opacity="1"><g transform="translate(264.655702, 208.425015)"><g><path d="M -2.046875 0 L 4.6875 -29.203125 L 10.53125 -29.203125 L 4.96875 -4.96875 L 10.984375 -4.96875 L 9.828125 0 Z M -2.046875 0 "/></g></g></g><g fill="#000000" fill-opacity="1"><g transform="translate(279.614136, 208.425015)"><g><path d="M 4.828125 0.265625 C 2.171875 0.265625 0.410156 -0.390625 -0.453125 -1.703125 C -1.328125 -3.015625 -1.425781 -5.132812 -0.75 -8.0625 L -0.109375 -10.90625 L 5.640625 -10.90625 L 4.796875 -7.28125 C 4.453125 -5.820312 4.742188 -5.09375 5.671875 -5.09375 C 6.191406 -5.09375 6.59375 -5.242188 6.875 -5.546875 C 7.164062 -5.859375 7.390625 -6.378906 7.546875 -7.109375 C 7.773438 -8.054688 7.84375 -8.84375 7.75 -9.46875 C 7.65625 -10.09375 7.484375 -10.613281 7.234375 -11.03125 C 6.984375 -11.445312 6.507812 -12.097656 5.8125 -12.984375 L 3.875 -15.5 C 2.375 -17.40625 1.882812 -19.515625 2.40625 -21.828125 C 2.976562 -24.316406 3.988281 -26.210938 5.4375 -27.515625 C 6.882812 -28.828125 8.707031 -29.484375 10.90625 -29.484375 C 13.539062 -29.484375 15.273438 -28.785156 16.109375 -27.390625 C 16.953125 -25.992188 17.019531 -23.8125 16.3125 -20.84375 L 10.375 -20.84375 L 10.8125 -22.84375 C 10.894531 -23.226562 10.859375 -23.535156 10.703125 -23.765625 C 10.546875 -23.992188 10.273438 -24.109375 9.890625 -24.109375 C 9.441406 -24.109375 9.066406 -23.984375 8.765625 -23.734375 C 8.472656 -23.484375 8.28125 -23.144531 8.1875 -22.71875 C 7.957031 -21.757812 8.273438 -20.769531 9.140625 -19.75 L 11.796875 -16.484375 C 12.410156 -15.710938 12.894531 -14.984375 13.25 -14.296875 C 13.613281 -13.609375 13.847656 -12.789062 13.953125 -11.84375 C 14.054688 -10.90625 13.960938 -9.789062 13.671875 -8.5 C 12.984375 -5.625 11.941406 -3.441406 10.546875 -1.953125 C 9.160156 -0.472656 7.253906 0.265625 4.828125 0.265625 Z M 4.828125 0.265625 "/></g></g></g><g fill="#000000" fill-opacity="1"><g transform="translate(140.730007, 227.794781)"><g><path d="M 8.0625 -6.875 C 7.875 -6.875 7.773438 -6.957031 7.765625 -7.125 C 7.765625 -7.457031 7.769531 -7.828125 7.78125 -8.234375 C 7.0625 -8.453125 6.4375 -8.5625 5.90625 -8.5625 C 5.394531 -8.5625 4.953125 -8.484375 4.578125 -8.328125 C 4.140625 -8.148438 3.765625 -7.910156 3.453125 -7.609375 C 3.128906 -7.296875 2.867188 -6.925781 2.671875 -6.5 C 2.441406 -6.03125 2.296875 -5.535156 2.234375 -5.015625 C 2.171875 -4.441406 2.191406 -3.941406 2.296875 -3.515625 C 2.398438 -3.078125 2.570312 -2.707031 2.8125 -2.40625 C 3.019531 -2.125 3.316406 -1.890625 3.703125 -1.703125 C 4.015625 -1.546875 4.394531 -1.46875 4.84375 -1.46875 C 5.101562 -1.46875 5.34375 -1.484375 5.5625 -1.515625 C 5.726562 -1.535156 5.921875 -1.578125 6.140625 -1.640625 C 6.285156 -1.679688 6.457031 -1.757812 6.65625 -1.875 C 6.78125 -1.945312 6.953125 -2.066406 7.171875 -2.234375 C 7.222656 -2.273438 7.269531 -2.304688 7.3125 -2.328125 C 7.351562 -2.347656 7.410156 -2.359375 7.484375 -2.359375 C 7.597656 -2.359375 7.679688 -2.320312 7.734375 -2.25 L 8.375 -1.4375 C 7.894531 -0.925781 7.347656 -0.546875 6.734375 -0.296875 C 6.109375 -0.0234375 5.378906 0.109375 4.546875 0.109375 C 3.816406 0.109375 3.160156 -0.0195312 2.578125 -0.28125 C 1.992188 -0.539062 1.53125 -0.894531 1.1875 -1.34375 C 0.832031 -1.789062 0.570312 -2.328125 0.40625 -2.953125 C 0.257812 -3.554688 0.234375 -4.242188 0.328125 -5.015625 C 0.429688 -5.816406 0.640625 -6.507812 0.953125 -7.09375 C 1.285156 -7.71875 1.707031 -8.253906 2.21875 -8.703125 C 2.738281 -9.179688 3.320312 -9.539062 3.96875 -9.78125 C 4.632812 -10.03125 5.347656 -10.15625 6.109375 -10.15625 C 6.960938 -10.15625 7.984375 -9.914062 9.171875 -9.4375 L 8.859375 -6.875 Z M 8.0625 -6.875 "/></g></g></g><g fill="#000000" fill-opacity="1"><g transform="translate(150.162051, 227.794781)"><g><path d="M 10.90625 -1.078125 C 11.070312 -1.015625 11.148438 -0.890625 11.140625 -0.703125 L 11.046875 0 L 7.65625 0 L 7.734375 -0.703125 C 7.753906 -0.867188 7.863281 -0.992188 8.0625 -1.078125 C 8.175781 -1.109375 8.269531 -1.144531 8.34375 -1.1875 L 8.328125 -1.34375 L 7.984375 -2.6875 L 3.984375 -2.6875 L 3.296875 -1.265625 L 3.25 -1.1875 C 3.300781 -1.15625 3.359375 -1.128906 3.421875 -1.109375 L 3.515625 -1.078125 C 3.679688 -0.992188 3.757812 -0.867188 3.75 -0.703125 L 3.65625 0 L 0.265625 0 L 0.34375 -0.703125 C 0.351562 -0.867188 0.460938 -0.992188 0.671875 -1.078125 C 0.679688 -1.078125 0.945312 -1.179688 1.46875 -1.390625 L 5.921875 -10.046875 L 7.84375 -10.046875 L 10.1875 -1.390625 C 10.632812 -1.191406 10.875 -1.085938 10.90625 -1.078125 Z M 6.15625 -7.125 L 4.625 -4.015625 L 7.671875 -4.015625 L 6.921875 -7.125 C 6.847656 -7.382812 6.804688 -7.5625 6.796875 -7.65625 C 6.753906 -7.832031 6.710938 -8.050781 6.671875 -8.3125 C 6.648438 -8.257812 6.609375 -8.15625 6.546875 -8 C 6.484375 -7.84375 6.4375 -7.726562 6.40625 -7.65625 C 6.363281 -7.539062 6.28125 -7.363281 6.15625 -7.125 Z M 6.15625 -7.125 "/></g></g></g><g fill="#000000" fill-opacity="1"><g transform="translate(161.595862, 227.794781)"><g><path d="M 9.046875 -1.25 C 9.273438 -1.195312 9.375 -1.054688 9.34375 -0.828125 L 9.25 0 L 7.375 0 C 7.207031 0 7.070312 -0.03125 6.96875 -0.09375 C 6.875 -0.15625 6.789062 -0.25 6.71875 -0.375 L 5 -3.59375 C 4.9375 -3.707031 4.863281 -3.789062 4.78125 -3.84375 C 4.695312 -3.90625 4.554688 -3.9375 4.359375 -3.9375 L 3.671875 -3.9375 L 3.34375 -1.375 C 3.40625 -1.363281 3.476562 -1.347656 3.5625 -1.328125 C 3.65625 -1.316406 3.71875 -1.304688 3.75 -1.296875 C 3.78125 -1.296875 3.816406 -1.289062 3.859375 -1.28125 C 3.910156 -1.269531 3.945312 -1.265625 3.96875 -1.265625 C 3.976562 -1.265625 3.992188 -1.257812 4.015625 -1.25 L 4.046875 -1.25 C 4.265625 -1.195312 4.359375 -1.054688 4.328125 -0.828125 L 4.234375 0 L 0.265625 0 L 0.359375 -0.828125 C 0.390625 -1.054688 0.523438 -1.195312 0.765625 -1.25 C 0.796875 -1.25 0.820312 -1.253906 0.84375 -1.265625 C 0.894531 -1.273438 0.972656 -1.289062 1.078125 -1.3125 C 1.097656 -1.3125 1.15625 -1.316406 1.25 -1.328125 C 1.34375 -1.347656 1.421875 -1.363281 1.484375 -1.375 L 2.375 -8.671875 C 2.320312 -8.679688 2.25 -8.691406 2.15625 -8.703125 C 2.0625 -8.722656 2 -8.734375 1.96875 -8.734375 C 1.9375 -8.742188 1.898438 -8.753906 1.859375 -8.765625 C 1.816406 -8.773438 1.789062 -8.78125 1.78125 -8.78125 C 1.757812 -8.78125 1.738281 -8.78125 1.71875 -8.78125 L 1.703125 -8.796875 C 1.472656 -8.847656 1.375 -8.988281 1.40625 -9.21875 L 1.5 -10.046875 L 5.515625 -10.046875 C 6.179688 -10.046875 6.757812 -9.972656 7.25 -9.828125 C 7.695312 -9.703125 8.070312 -9.503906 8.375 -9.234375 C 8.65625 -8.984375 8.847656 -8.679688 8.953125 -8.328125 C 9.054688 -7.941406 9.082031 -7.550781 9.03125 -7.15625 C 8.988281 -6.8125 8.898438 -6.488281 8.765625 -6.1875 C 8.640625 -5.914062 8.457031 -5.644531 8.21875 -5.375 C 7.988281 -5.125 7.734375 -4.910156 7.453125 -4.734375 C 7.179688 -4.554688 6.847656 -4.410156 6.453125 -4.296875 C 6.679688 -4.160156 6.863281 -3.960938 7 -3.703125 L 8.296875 -1.375 C 8.328125 -1.375 8.390625 -1.363281 8.484375 -1.34375 C 8.585938 -1.320312 8.660156 -1.3125 8.703125 -1.3125 C 8.742188 -1.300781 8.789062 -1.289062 8.84375 -1.28125 C 8.90625 -1.269531 8.941406 -1.265625 8.953125 -1.265625 C 8.984375 -1.265625 9.003906 -1.257812 9.015625 -1.25 Z M 5.828125 -5.40625 C 6.085938 -5.476562 6.320312 -5.597656 6.53125 -5.765625 C 6.707031 -5.898438 6.851562 -6.085938 6.96875 -6.328125 C 7.082031 -6.546875 7.15625 -6.773438 7.1875 -7.015625 C 7.238281 -7.535156 7.117188 -7.925781 6.828125 -8.1875 C 6.523438 -8.457031 6.023438 -8.59375 5.328125 -8.59375 L 4.234375 -8.59375 L 3.828125 -5.265625 L 4.90625 -5.265625 C 5.195312 -5.265625 5.503906 -5.3125 5.828125 -5.40625 Z M 5.828125 -5.40625 "/></g></g></g><g fill="#000000" fill-opacity="1"><g transform="translate(171.238263, 227.794781)"><g/></g></g><g fill="#000000" fill-opacity="1"><g transform="translate(174.447874, 227.794781)"><g><path d="M 9.046875 -1.25 C 9.273438 -1.195312 9.375 -1.054688 9.34375 -0.828125 L 9.25 0 L 7.375 0 C 7.207031 0 7.070312 -0.03125 6.96875 -0.09375 C 6.875 -0.15625 6.789062 -0.25 6.71875 -0.375 L 5 -3.59375 C 4.9375 -3.707031 4.863281 -3.789062 4.78125 -3.84375 C 4.695312 -3.90625 4.554688 -3.9375 4.359375 -3.9375 L 3.671875 -3.9375 L 3.34375 -1.375 C 3.40625 -1.363281 3.476562 -1.347656 3.5625 -1.328125 C 3.65625 -1.316406 3.71875 -1.304688 3.75 -1.296875 C 3.78125 -1.296875 3.816406 -1.289062 3.859375 -1.28125 C 3.910156 -1.269531 3.945312 -1.265625 3.96875 -1.265625 C 3.976562 -1.265625 3.992188 -1.257812 4.015625 -1.25 L 4.046875 -1.25 C 4.265625 -1.195312 4.359375 -1.054688 4.328125 -0.828125 L 4.234375 0 L 0.265625 0 L 0.359375 -0.828125 C 0.390625 -1.054688 0.523438 -1.195312 0.765625 -1.25 C 0.796875 -1.25 0.820312 -1.253906 0.84375 -1.265625 C 0.894531 -1.273438 0.972656 -1.289062 1.078125 -1.3125 C 1.097656 -1.3125 1.15625 -1.316406 1.25 -1.328125 C 1.34375 -1.347656 1.421875 -1.363281 1.484375 -1.375 L 2.375 -8.671875 C 2.320312 -8.679688 2.25 -8.691406 2.15625 -8.703125 C 2.0625 -8.722656 2 -8.734375 1.96875 -8.734375 C 1.9375 -8.742188 1.898438 -8.753906 1.859375 -8.765625 C 1.816406 -8.773438 1.789062 -8.78125 1.78125 -8.78125 C 1.757812 -8.78125 1.738281 -8.78125 1.71875 -8.78125 L 1.703125 -8.796875 C 1.472656 -8.847656 1.375 -8.988281 1.40625 -9.21875 L 1.5 -10.046875 L 5.515625 -10.046875 C 6.179688 -10.046875 6.757812 -9.972656 7.25 -9.828125 C 7.695312 -9.703125 8.070312 -9.503906 8.375 -9.234375 C 8.65625 -8.984375 8.847656 -8.679688 8.953125 -8.328125 C 9.054688 -7.941406 9.082031 -7.550781 9.03125 -7.15625 C 8.988281 -6.8125 8.898438 -6.488281 8.765625 -6.1875 C 8.640625 -5.914062 8.457031 -5.644531 8.21875 -5.375 C 7.988281 -5.125 7.734375 -4.910156 7.453125 -4.734375 C 7.179688 -4.554688 6.847656 -4.410156 6.453125 -4.296875 C 6.679688 -4.160156 6.863281 -3.960938 7 -3.703125 L 8.296875 -1.375 C 8.328125 -1.375 8.390625 -1.363281 8.484375 -1.34375 C 8.585938 -1.320312 8.660156 -1.3125 8.703125 -1.3125 C 8.742188 -1.300781 8.789062 -1.289062 8.84375 -1.28125 C 8.90625 -1.269531 8.941406 -1.265625 8.953125 -1.265625 C 8.984375 -1.265625 9.003906 -1.257812 9.015625 -1.25 Z M 5.828125 -5.40625 C 6.085938 -5.476562 6.320312 -5.597656 6.53125 -5.765625 C 6.707031 -5.898438 6.851562 -6.085938 6.96875 -6.328125 C 7.082031 -6.546875 7.15625 -6.773438 7.1875 -7.015625 C 7.238281 -7.535156 7.117188 -7.925781 6.828125 -8.1875 C 6.523438 -8.457031 6.023438 -8.59375 5.328125 -8.59375 L 4.234375 -8.59375 L 3.828125 -5.265625 L 4.90625 -5.265625 C 5.195312 -5.265625 5.503906 -5.3125 5.828125 -5.40625 Z M 5.828125 -5.40625 "/></g></g></g><g fill="#000000" fill-opacity="1"><g transform="translate(184.090275, 227.794781)"><g><path d="M 2.5625 -10.046875 L 8.890625 -10.046875 L 8.765625 -9.0625 L 8.6875 -8.5625 L 8.5625 -7.40625 L 7.765625 -7.40625 C 7.585938 -7.40625 7.488281 -7.492188 7.46875 -7.671875 C 7.46875 -7.671875 7.46875 -7.71875 7.46875 -7.8125 C 7.46875 -7.914062 7.46875 -8.03125 7.46875 -8.15625 C 7.46875 -8.28125 7.46875 -8.414062 7.46875 -8.5625 L 4.25 -8.5625 L 3.90625 -5.78125 L 7.3125 -5.78125 L 7.125 -4.328125 L 3.734375 -4.328125 L 3.375 -1.5 L 6.609375 -1.5 C 6.671875 -1.78125 6.742188 -2.078125 6.828125 -2.390625 C 6.878906 -2.566406 7 -2.65625 7.1875 -2.65625 L 7.96875 -2.65625 L 7.828125 -1.5 L 7.765625 -0.96875 L 7.65625 0 L 0.265625 0 L 0.359375 -0.828125 C 0.390625 -1.054688 0.523438 -1.195312 0.765625 -1.25 C 0.773438 -1.25 0.785156 -1.25 0.796875 -1.25 C 0.816406 -1.257812 0.832031 -1.265625 0.84375 -1.265625 C 0.863281 -1.265625 0.898438 -1.269531 0.953125 -1.28125 C 1.003906 -1.289062 1.046875 -1.300781 1.078125 -1.3125 C 1.097656 -1.3125 1.15625 -1.316406 1.25 -1.328125 C 1.34375 -1.347656 1.421875 -1.363281 1.484375 -1.375 L 2.375 -8.671875 C 2.320312 -8.679688 2.25 -8.691406 2.15625 -8.703125 C 2.0625 -8.722656 2 -8.734375 1.96875 -8.734375 C 1.9375 -8.742188 1.898438 -8.753906 1.859375 -8.765625 C 1.816406 -8.773438 1.789062 -8.78125 1.78125 -8.78125 C 1.757812 -8.78125 1.738281 -8.78125 1.71875 -8.78125 L 1.703125 -8.796875 C 1.472656 -8.847656 1.375 -8.988281 1.40625 -9.21875 L 1.5 -10.046875 Z M 2.5625 -10.046875 "/></g></g></g><g fill="#000000" fill-opacity="1"><g transform="translate(193.230539, 227.794781)"><g><path d="M 11.03125 -10.046875 L 12.078125 -10.046875 L 11.96875 -9.21875 C 11.945312 -8.988281 11.816406 -8.847656 11.578125 -8.796875 C 11.566406 -8.796875 11.550781 -8.789062 11.53125 -8.78125 C 11.519531 -8.78125 11.503906 -8.78125 11.484375 -8.78125 C 11.472656 -8.78125 11.441406 -8.773438 11.390625 -8.765625 C 11.347656 -8.753906 11.3125 -8.742188 11.28125 -8.734375 C 11.25 -8.734375 11.179688 -8.722656 11.078125 -8.703125 C 10.984375 -8.691406 10.90625 -8.679688 10.84375 -8.671875 L 9.796875 0 L 8.8125 0 C 8.675781 0 8.554688 -0.0195312 8.453125 -0.0625 C 8.378906 -0.09375 8.296875 -0.175781 8.203125 -0.3125 L 3.78125 -7 C 3.78125 -6.800781 3.773438 -6.660156 3.765625 -6.578125 L 3.71875 -6.171875 L 3.125 -1.375 C 3.28125 -1.351562 3.429688 -1.332031 3.578125 -1.3125 C 3.734375 -1.289062 3.84375 -1.273438 3.90625 -1.265625 C 3.96875 -1.253906 4.003906 -1.25 4.015625 -1.25 C 4.242188 -1.195312 4.347656 -1.054688 4.328125 -0.828125 L 4.21875 0 L 0.265625 0 L 0.359375 -0.828125 C 0.390625 -1.054688 0.523438 -1.195312 0.765625 -1.25 C 0.796875 -1.25 0.820312 -1.253906 0.84375 -1.265625 C 0.894531 -1.273438 0.972656 -1.289062 1.078125 -1.3125 C 1.097656 -1.3125 1.15625 -1.316406 1.25 -1.328125 C 1.34375 -1.347656 1.421875 -1.363281 1.484375 -1.375 L 2.375 -8.671875 C 2.320312 -8.679688 2.25 -8.691406 2.15625 -8.703125 C 2.0625 -8.722656 2 -8.734375 1.96875 -8.734375 C 1.9375 -8.742188 1.898438 -8.753906 1.859375 -8.765625 C 1.816406 -8.773438 1.789062 -8.78125 1.78125 -8.78125 C 1.757812 -8.78125 1.738281 -8.78125 1.71875 -8.78125 L 1.703125 -8.796875 C 1.472656 -8.847656 1.375 -8.988281 1.40625 -9.21875 L 1.5 -10.046875 L 3.53125 -10.046875 C 3.550781 -10.046875 3.585938 -10.039062 3.640625 -10.03125 C 3.691406 -10.03125 3.722656 -10.03125 3.734375 -10.03125 C 3.785156 -10.03125 3.832031 -10.015625 3.875 -9.984375 C 3.914062 -9.972656 3.957031 -9.945312 4 -9.90625 C 4.019531 -9.882812 4.054688 -9.828125 4.109375 -9.734375 L 8.578125 -3.03125 C 8.578125 -3.238281 8.582031 -3.394531 8.59375 -3.5 C 8.601562 -3.707031 8.613281 -3.859375 8.625 -3.953125 L 9.203125 -8.671875 C 8.640625 -8.753906 8.347656 -8.796875 8.328125 -8.796875 C 8.097656 -8.847656 8 -8.988281 8.03125 -9.21875 L 8.125 -10.046875 Z M 11.03125 -10.046875 "/></g></g></g><g fill="#000000" fill-opacity="1"><g transform="translate(205.566838, 227.794781)"><g><path d="M 8.671875 -10.046875 L 8.890625 -10.046875 L 8.59375 -7.671875 L 7.8125 -7.671875 C 7.625 -7.671875 7.523438 -7.753906 7.515625 -7.921875 L 7.515625 -8.515625 L 5.453125 -8.515625 L 4.578125 -1.375 C 4.640625 -1.363281 4.710938 -1.347656 4.796875 -1.328125 C 4.890625 -1.316406 4.953125 -1.304688 4.984375 -1.296875 C 5.015625 -1.296875 5.050781 -1.289062 5.09375 -1.28125 C 5.144531 -1.269531 5.179688 -1.265625 5.203125 -1.265625 C 5.210938 -1.265625 5.226562 -1.257812 5.25 -1.25 L 5.28125 -1.25 C 5.5 -1.195312 5.59375 -1.054688 5.5625 -0.828125 L 5.46875 0 L 1.5 0 L 1.59375 -0.828125 C 1.625 -1.054688 1.757812 -1.195312 2 -1.25 C 2 -1.25 2.007812 -1.25 2.03125 -1.25 C 2.050781 -1.257812 2.066406 -1.265625 2.078125 -1.265625 C 2.097656 -1.265625 2.132812 -1.269531 2.1875 -1.28125 C 2.238281 -1.289062 2.28125 -1.300781 2.3125 -1.3125 C 2.332031 -1.3125 2.390625 -1.316406 2.484375 -1.328125 C 2.578125 -1.347656 2.65625 -1.363281 2.71875 -1.375 L 3.59375 -8.515625 L 1.546875 -8.515625 C 1.460938 -8.160156 1.414062 -7.960938 1.40625 -7.921875 C 1.351562 -7.753906 1.238281 -7.671875 1.0625 -7.671875 L 0.25 -7.671875 L 0.546875 -10.046875 Z M 8.671875 -10.046875 "/></g></g></g><g fill="#000000" fill-opacity="1"><g transform="translate(214.720672, 227.794781)"><g><path d="M 10.90625 -1.078125 C 11.070312 -1.015625 11.148438 -0.890625 11.140625 -0.703125 L 11.046875 0 L 7.65625 0 L 7.734375 -0.703125 C 7.753906 -0.867188 7.863281 -0.992188 8.0625 -1.078125 C 8.175781 -1.109375 8.269531 -1.144531 8.34375 -1.1875 L 8.328125 -1.34375 L 7.984375 -2.6875 L 3.984375 -2.6875 L 3.296875 -1.265625 L 3.25 -1.1875 C 3.300781 -1.15625 3.359375 -1.128906 3.421875 -1.109375 L 3.515625 -1.078125 C 3.679688 -0.992188 3.757812 -0.867188 3.75 -0.703125 L 3.65625 0 L 0.265625 0 L 0.34375 -0.703125 C 0.351562 -0.867188 0.460938 -0.992188 0.671875 -1.078125 C 0.679688 -1.078125 0.945312 -1.179688 1.46875 -1.390625 L 5.921875 -10.046875 L 7.84375 -10.046875 L 10.1875 -1.390625 C 10.632812 -1.191406 10.875 -1.085938 10.90625 -1.078125 Z M 6.15625 -7.125 L 4.625 -4.015625 L 7.671875 -4.015625 L 6.921875 -7.125 C 6.847656 -7.382812 6.804688 -7.5625 6.796875 -7.65625 C 6.753906 -7.832031 6.710938 -8.050781 6.671875 -8.3125 C 6.648438 -8.257812 6.609375 -8.15625 6.546875 -8 C 6.484375 -7.84375 6.4375 -7.726562 6.40625 -7.65625 C 6.363281 -7.539062 6.28125 -7.363281 6.15625 -7.125 Z M 6.15625 -7.125 "/></g></g></g><g fill="#000000" fill-opacity="1"><g transform="translate(226.154483, 227.794781)"><g><path d="M 7.09375 -2.40625 L 7.828125 -2.40625 L 7.671875 -1 L 7.625 -0.734375 L 7.546875 0 L 0.265625 0 L 0.359375 -0.828125 C 0.390625 -1.054688 0.523438 -1.195312 0.765625 -1.25 C 0.796875 -1.25 0.820312 -1.253906 0.84375 -1.265625 C 0.863281 -1.265625 0.898438 -1.269531 0.953125 -1.28125 C 1.003906 -1.289062 1.046875 -1.300781 1.078125 -1.3125 C 1.097656 -1.3125 1.15625 -1.316406 1.25 -1.328125 C 1.34375 -1.347656 1.421875 -1.363281 1.484375 -1.375 L 2.375 -8.671875 C 2.320312 -8.679688 2.25 -8.691406 2.15625 -8.703125 C 2.0625 -8.722656 2 -8.734375 1.96875 -8.734375 C 1.9375 -8.742188 1.898438 -8.753906 1.859375 -8.765625 C 1.816406 -8.773438 1.789062 -8.78125 1.78125 -8.78125 C 1.75 -8.789062 1.722656 -8.796875 1.703125 -8.796875 C 1.472656 -8.847656 1.375 -8.988281 1.40625 -9.21875 L 1.5 -10.046875 L 5.46875 -10.046875 L 5.359375 -9.21875 C 5.335938 -8.988281 5.207031 -8.847656 4.96875 -8.796875 C 4.9375 -8.796875 4.90625 -8.789062 4.875 -8.78125 C 4.84375 -8.757812 4.773438 -8.742188 4.671875 -8.734375 C 4.640625 -8.734375 4.578125 -8.722656 4.484375 -8.703125 C 4.398438 -8.691406 4.320312 -8.679688 4.25 -8.671875 L 3.375 -1.546875 L 6.609375 -1.546875 C 6.679688 -1.878906 6.722656 -2.078125 6.734375 -2.140625 C 6.785156 -2.316406 6.90625 -2.40625 7.09375 -2.40625 Z M 7.09375 -2.40625 "/></g></g></g><path stroke-linecap="butt" transform="matrix(0.754799, -0.00287446, 0.00285616, 0.749995, 98.207883, 220.570987)" fill="none" stroke-linejoin="miter" d="M 0.00115669 3.49913 L 26.834656 3.497806 " stroke="#004aad" stroke-width="7" stroke-opacity="1" stroke-miterlimit="4"/><path stroke-linecap="butt" transform="matrix(0.754805, 0, 0, 0.75, 248.817322, 220.570987)" fill="none" stroke-linejoin="miter" d="M -0.00121291 3.499101 L 26.837263 3.499101 " stroke="#004aad" stroke-width="7" stroke-opacity="1" stroke-miterlimit="4"/></svg>